<?xml version="1.0" encoding="UTF-8"?>
<!-- Created with Inkscape (http://www.inkscape.org/) -->
<svg width="640" height="640" version="1.1" viewBox="0 0 640 640" xmlns="http://www.w3.org/2000/svg">
 <path d="m156 426.26c0-1.5929 1.9056-4.7807 83.972-140.48 89.134-147.38 84.18-139.48 86.323-137.7 0.97262 0.8072 10.154 15.176 20.402 31.93 31.172 50.959 34.192 56.312 33.323 59.049-1.5305 4.8222-27.649 25.362-30.715 24.155-0.91573-0.36053-6.5064-8.5615-12.424-18.224-5.9173-9.6629-11.061-17.582-11.431-17.598-0.63496-0.0275-66.064 107.63-67.018 110.27-1.3806 3.8232 11.481-2.3415 38.776-18.586 53.099-31.602 99.122-69.917 139.8-116.38 7.6298-8.7166 14.164-15.557 14.52-15.201 1.2601 1.2601-18.904 38.003-29.954 54.584-16.86 25.297-32.459 44.093-56.368 67.92-41.299 41.157-84.533 69.969-141.16 94.073-23.547 10.022-68.037 24.536-68.037 22.195z" fill="#4d4d4d" stroke-width="1.3448"/>
 <path d="m224 471.85c0-0.91342 3.1634-2.1984 9.25-3.7572 25.469-6.523 56.718-18.236 84.25-31.578l17-8.2385 54.94-0.6595c30.217-0.36273 55.129-0.84862 55.36-1.0798 0.36852-0.36852-36.971-62.79-38.771-64.816-0.38307-0.43096-6.5089 4.6297-13.613 11.246-28.761 26.786-67.55 49.823-115.42 68.547-35.622 13.934-74.308 23.162-116 27.671-12.699 1.3734-67.79 1.7572-75.083 0.52318-7.8461-1.3275-5.6851-3.1814 5.8762-5.0411 15.237-2.4509 40.536-8.0235 57.72-12.714 74.901-20.444 140.83-52.9 192.49-94.766 20.867-16.911 50.788-49.201 63.395-68.414 1.7077-2.6026 3.6136-4.7401 4.2354-4.75 0.62175-0.01 13.053 19.67 27.626 43.732 14.572 24.062 34.269 56.575 43.769 72.25s22.654 37.39 29.229 48.257c7.0251 11.61 11.718 20.372 11.381 21.25-0.49718 1.2956-7.0317 1.4974-49.354 1.5244-26.83 0.0171-53.956 0.21346-60.281 0.43639s-51.212 0.71162-99.75 1.086c-74.945 0.57803-88.25 0.47136-88.25-0.70752z"/>
 <path d="m164 423.5c34.974-9.2482 87.008-31.445 119.66-51.042 40.005-24.013 80.596-59.164 110.81-95.955 9.2442-11.258 25.644-33.938 31.094-43 1.9845-3.3 4.8701-8.0732 6.4124-10.607 1.5423-2.534 5.8257-10.409 9.5187-17.5l6.7145-12.893-4.3514 4.9971c-37.152 42.665-63.318 66.768-103.99 95.795-11.881 8.4789-41.204 27.708-42.252 27.708-0.22135 0-3.2609 1.7323-6.7546 3.8495-8.1606 4.9454-30.672 16.748-33.602 17.618-1.686 0.50027-2.25 0.25914-2.25-0.96192 0-0.89625 5.349-10.489 11.887-21.317 61.508-101.88 56.733-94.188 58.499-94.188 1.25 0 8.9441 11.694 19.569 29.742 2.5953 4.4085 4.7096 6.9871 5.4042 6.591 6.1538-3.5094 22.292-16.633 26.737-21.743l2.5964-2.9845-14.212-23.553c-26.574-44.04-39.57-65.476-39.893-65.798-0.17721-0.1772-6.3819 9.7056-13.788 21.962-19.675 32.558-66.013 109.21-84.509 139.78-53.085 87.764-68.101 112.63-69.064 114.36-0.26237 0.47143 0.36681 0.61963 1.3982 0.32935s3.0002-0.82527 4.3752-1.1889z"/>
 <path d="m155 426.39c0-0.88793 2.6316-5.9504 5.8479-11.25 21.017-34.629 122.04-201.62 128.64-212.64 13.544-22.615 31.089-51.425 32.903-54.027 1.1604-1.6651 2.6598-3.0151 3.3321-3 0.67232 0.0151 12.098 18.027 25.391 40.027 34.951 57.846 31.439 51.426 29.766 54.407-3.1646 5.6381-28.57 25.485-31.835 24.87-1.2854-0.24196-8.1453-10.862-21.328-33.017l-2.2258-3.7408-15.899 26.241c-8.7443 14.432-23.407 38.616-32.583 53.741s-17.241 28.546-17.921 29.824c-1.2741 2.3953 1.2297 1.2401 21.913-10.11 37.117-20.369 81.524-52.159 111.5-79.822 14.723-13.587 36.705-36.849 50.453-53.391 9.9543-11.977 10.666-12.729 9.0055-9.5-1.1758 2.2855-1.1434 2.3823 0.37759 1.1276 0.91505-0.75485 1.6637-1.0864 1.6637-0.73668 0 1.2563-13.994 28.54-19.097 37.232-37.696 64.211-93.152 119.35-156.5 155.62-33.202 19.006-72.351 35.54-109.73 46.341-13.64 3.9412-13.67 3.9452-13.67 1.8039z" fill="#4d4d4d"/>
 <path d="m384.5 468.9c73.15-0.6234 133.15-1.2638 133.32-1.423 0.17803-0.15927-1.5876-3.494-3.9237-7.4105-3.0614-5.1325-4.5045-6.7641-5.168-5.843-0.65292 0.90634-0.7543 0.76225-0.34867-0.49553 0.35947-1.1146-1.3701-4.943-4.6557-10.305-2.8752-4.6924-5.7714-9.5117-6.436-10.71-0.6646-1.1978-1.7896-2.6371-2.5-3.1985-0.7104-0.56135-1.4276-1.694-1.5939-2.517-0.16624-0.82301-3.5412-6.8077-7.5-13.299-3.9588-6.4916-8.2541-13.692-9.5452-16s-4.3286-7.2291-6.75-10.935c-2.4214-3.7059-4.4025-7.1277-4.4025-7.604s-1.125-2.0799-2.5-3.5635-2.5-3.1567-2.5-3.718c0-2.1281-5.2332-9.8504-6.2497-9.2222-0.58264 0.36009-0.8211 0.24769-0.5299-0.24979 0.50987-0.87104-3.1514-7.7153-11.822-22.1-18.393-30.514-29.688-48.871-30.333-49.298-0.42092-0.27865-0.94529-1.0475-1.1653-1.7086s-2.1999 1.4157-4.3999 4.6151c-4.3492 6.3249-13.528 17.946-19.816 25.087-6.35 7.2124-31.134 32.455-31.709 32.296-0.28845-0.0799-3.637 2.7459-7.4411 6.2796s-7.2394 6.4248-7.6339 6.4248-3.121 1.9531-6.0589 4.3402c-6.5857 5.3511-27.259 19.373-39.342 26.684-4.95 2.9952-9.2753 5.8285-9.6118 6.296-0.3365 0.46758-0.899 0.81172-1.25 0.76474-2.0839-0.27889-2.6736 0.0582-2.0369 1.1646 0.39564 0.6875 0.377 0.94231-0.0414 0.56623-0.85982-0.77279-12.56 4.8922-12.56 6.0813 0 0.42304-0.5625 0.79216-1.25 0.82027-2.5302 0.10346-15.764 6.9375-15.02 7.7563 0.42328 0.46563 0.28886 0.57342-0.2987 0.23954-0.58757-0.33387-3.5126 0.53294-6.5 1.9262-23.512 10.966-56.92 23.491-79.663 29.866-3.427 0.96071-5.9911 2.1347-5.6981 2.6089 0.29305 0.47417-0.0543 0.63683-0.77192 0.36145-0.71761-0.27537-10.078 1.7024-20.802 4.395-10.723 2.6926-24.163 5.7108-29.867 6.7071-7.0246 1.2271-9.7664 2.0561-8.5 2.5699 2.9858 1.2114 43.559 0.69313 58.67-0.74938 20.056-1.9147 28.193-3.1117 47.2-6.9436 16.71-3.3688 46.919-11.508 50.948-13.727 1.1288-0.62178 2.8603-1.2653 3.8478-1.4301 1.9622-0.32738 18.807-6.4988 25.205-9.2342 2.2-0.94065 5.9125-2.5332 8.25-3.539s4.25-2.237 4.25-2.7359 0.42098-0.64696 0.93552-0.32896c1.2437 0.76862 33.064-15.309 33.064-16.706 0-0.59835 0.29404-0.79388 0.65341-0.4345 0.35938 0.35938 2.2719-0.31264 4.25-1.4934 3.6696-2.1904 6.9682-4.8581 4.0966-3.3131-0.87453 0.47052-1.1578 0.43276-0.67942-0.0905 0.45132-0.49366 1.3513-0.90331 2-0.91033 2.1982-0.0238 14.582-7.8621 13.974-8.8452-0.33194-0.5371-0.13478-0.68684 0.43814-0.33276 2.4521 1.5155 37.863-27.34 36.836-30.016-0.26474-0.6899 0.0185-1.5633 0.62949-1.9409 0.67266-0.41573 0.82938-0.23113 0.39731 0.46797-1.5135 2.4489 1.0821 0.96519 4.9045-2.8036 5.8294-5.7476 7.2041-5.3632 12.5 3.4951 2.475 4.1399 5.7207 9.4251 7.2126 11.745 1.4919 2.3199 3.4047 5.5679 4.2507 7.2179s3.1188 5.475 5.0509 8.5c1.932 3.025 5.5496 8.875 8.039 13 2.4894 4.125 6.3084 10.358 8.4865 13.85 6.5847 10.559 7.2245 10.15-15.876 10.15-10.91 0-36.827 0.29877-57.593 0.66394-30.461 0.53565-38.028 0.93591-39.164 2.0714-0.77412 0.77412-1.4075 1.1842-1.4075 0.91135 0-0.27288-5.2875 2.1061-11.75 5.2866-23.509 11.57-43.061 19.351-66.75 26.564-6.6 2.0096-13.125 4.016-14.5 4.4586-1.5421 0.49642 0.56515 0.66522 5.5 0.44056 4.4-0.2003 67.85-0.87425 141-1.4976z"/>
</svg>
